<svg xmlns="http://www.w3.org/2003/svg" viewBox="0 0 512 512">
  <path fill="#22d3ee" d="M448 232h-74.6l54.8-54.8c6.2-6.2 6.2-16.4 0-22.6s-16.4-6.2-22.6 0l-54.8 54.8V134.8l54.8-54.8c6.2-6.2 6.2-16.4 0-22.6s-16.4-6.2-22.6 0l-54.8 54.8V32c0-8.8-7.2-16-16-16s-16 7.2-16 16v74.6L242.2 51.4c-6.2-6.2-16.4-6.2-22.6 0s-6.2 16.4 0 22.6l54.8 54.8v74.6l-54.8-54.8c-6.2-6.2-16.4-6.2-22.6 0s-6.2 16.4 0 22.6l54.8 54.8H219.4l-54.8-54.8c-6.2-6.2-16.4-6.2-22.6 0s-6.2 16.4 0 22.6l54.8 54.8H64c-8.8 0-16 7.2-16 16s7.2 16 16 16h74.6l-54.8 54.8c-6.2 6.2-6.2 16.4 0 22.6s16.4 6.2 22.6 0l54.8-54.8v74.6l-54.8 54.8c-6.2 6.2-6.2 16.4 0 22.6s16.4 6.2 22.6 0l54.8-54.8v74.6c0 8.8 7.2 16 16 16s16-7.2 16-16v-74.6l54.8 54.8c6.2 6.2 16.4 6.2 22.6 0s6.2-16.4 0-22.6l-54.8-54.8v-74.6l54.8 54.8c6.2 6.2 16.4 6.2 22.6 0s6.2-16.4 0-22.6l-54.8-54.8h74.6l54.8 54.8c6.2 6.2 16.4 6.2 22.6 0s6.2-16.4 0-22.6l-54.8-54.8H448c8.8 0 16-7.2 16-16s-7.2-16-16-16z"/>
</svg>